<svg
    xmlns="http://www.w3.org/2000/svg"
    width="95.999977mm"
    height="20mm"
    viewBox="0 0 95.999977 20">
  <defs>
    <linearGradient id="linearGradient8">
      <stop stop-color="#6600ff" offset="0" />
      <stop stop-color="#ff6600" offset="1" />
    </linearGradient>
    <linearGradient
       href="#linearGradient8"
       id="linearGradient10"
       gradientUnits="userSpaceOnUse"
       x1="40.157841"
       y1="125.59601"
       x2="82.525055"
       y2="116.18629"
       gradientTransform="matrix(2.2677177,0,0,2.2677177,-47.531643,-147.20113)" />
  </defs>
  <g transform="translate(-43.611907,-116.27658)">
    <path
       fill="url(#linearGradient10)"
       d="M 103.61186 116.27658 L 103.61186 118.27646 L 101.61198 118.27646 L 101.61198 122.27673 L 97.611712 122.27673 L 97.611712 124.27661 L 101.61198 124.27661 L 101.61198 134.27651 L 103.61186 134.27651 L 103.61186 136.27639 L 109.61201 136.27639 L 109.61201 134.27651 L 111.61189 134.27651 L 113.61177 134.27651 L 113.61177 136.27639 L 123.61168 136.27639 L 123.61168 134.27651 L 125.61207 134.27651 L 125.61207 132.27664 L 121.6118 132.27664 L 121.6118 134.27651 L 115.61165 134.27651 L 115.61165 124.27661 L 121.6118 124.27661 L 121.6118 126.27649 L 125.61207 126.27649 L 125.61207 124.27661 L 123.61168 124.27661 L 123.61168 122.27673 L 113.61177 122.27673 L 113.61177 124.27661 L 111.61189 124.27661 L 111.61189 132.27664 L 107.61213 132.27664 L 107.61213 134.27651 L 105.61174 134.27651 L 105.61174 124.27661 L 109.61201 124.27661 L 109.61201 122.27673 L 105.61174 122.27673 L 105.61174 116.27658 L 103.61186 116.27658 z M 125.61207 134.27651 L 125.61207 136.27639 L 131.6117 136.27639 L 131.6117 126.27649 L 133.6121 126.27649 L 133.6121 124.27661 L 131.6117 124.27661 L 131.6117 116.27658 L 125.61207 116.27658 L 125.61207 118.27646 L 127.61195 118.27646 L 127.61195 134.27651 L 125.61207 134.27651 z M 133.6121 124.27661 L 135.61198 124.27661 L 135.61198 136.27639 L 139.61173 136.27639 L 139.61173 124.27661 L 137.61185 124.27661 L 137.61185 122.27673 L 133.6121 122.27673 L 133.6121 124.27661 z M 97.611712 124.27661 L 95.611834 124.27661 L 95.611834 122.27673 L 87.611805 122.27673 L 87.611805 124.27661 L 93.611956 124.27661 L 93.611956 126.27649 L 87.611805 126.27649 L 87.611805 128.27636 L 85.611927 128.27636 L 85.611927 134.27651 L 87.611805 134.27651 L 87.611805 136.27639 L 93.611956 136.27639 L 93.611956 134.27651 L 89.611683 134.27651 L 89.611683 128.27636 L 93.611956 128.27636 L 93.611956 134.27651 L 95.611834 134.27651 L 95.611834 136.27639 L 99.612106 136.27639 L 99.612106 134.27651 L 97.611712 134.27651 L 97.611712 124.27661 z M 85.611927 128.27636 L 85.611927 124.27661 L 83.612049 124.27661 L 83.612049 122.27673 L 77.611899 122.27673 L 77.611899 124.27661 L 75.612021 124.27661 L 75.612021 122.27673 L 71.611748 122.27673 L 71.611748 124.27661 L 73.612143 124.27661 L 73.612143 134.27651 L 71.611748 134.27651 L 71.611748 136.27639 L 79.611777 136.27639 L 79.611777 134.27651 L 77.611899 134.27651 L 77.611899 126.27649 L 79.611777 126.27649 L 79.611777 124.27661 L 81.611655 124.27661 L 81.611655 128.27636 L 85.611927 128.27636 z M 71.611748 134.27651 L 71.611748 132.27664 L 67.611992 132.27664 L 67.611992 134.27651 L 61.611842 134.27651 L 61.611842 124.27661 L 67.611992 124.27661 L 67.611992 126.27649 L 71.611748 126.27649 L 71.611748 124.27661 L 69.61187 124.27661 L 69.61187 122.27673 L 59.611964 122.27673 L 59.611964 124.27661 L 57.612086 124.27661 L 55.611691 124.27661 L 55.611691 122.27673 L 45.611785 122.27673 L 45.611785 124.27661 L 43.611907 124.27661 L 43.611907 126.27649 L 45.611785 126.27649 L 45.611785 128.27636 L 47.611663 128.27636 L 47.611663 130.27676 L 51.611935 130.27676 L 51.611935 132.27664 L 53.611813 132.27664 L 53.611813 134.27651 L 47.611663 134.27651 L 47.611663 132.27664 L 43.611907 132.27664 L 43.611907 134.27651 L 45.611785 134.27651 L 45.611785 136.27639 L 55.611691 136.27639 L 55.611691 134.27651 L 57.612086 134.27651 L 59.611964 134.27651 L 59.611964 136.27639 L 69.61187 136.27639 L 69.61187 134.27651 L 71.611748 134.27651 z M 47.611663 124.27661 L 53.611813 124.27661 L 53.611813 126.27649 L 57.612086 126.27649 L 57.612086 132.27664 L 55.611691 132.27664 L 55.611691 130.27676 L 53.611813 130.27676 L 53.611813 128.27636 L 49.612058 128.27636 L 49.612058 126.27649 L 47.611663 126.27649 L 47.611663 124.27661 z " />
  </g>
</svg>
