<?xml version="1.0" encoding="utf-8" standalone="no"?>
<!DOCTYPE svg PUBLIC "-//W3C//DTD SVG 1.1//EN"
  "http://www.w3.org/Graphics/SVG/1.1/DTD/svg11.dtd">
<svg xmlns:xlink="http://www.w3.org/1999/xlink" width="385.49325pt" height="310.86825pt" viewBox="0 0 385.49325 310.86825" xmlns="http://www.w3.org/2000/svg" version="1.1">
 <metadata>
  <rdf:RDF xmlns:dc="http://purl.org/dc/elements/1.1/" xmlns:cc="http://creativecommons.org/ns#" xmlns:rdf="http://www.w3.org/1999/02/22-rdf-syntax-ns#">
   <cc:Work>
    <dc:type rdf:resource="http://purl.org/dc/dcmitype/StillImage"/>
    <dc:date>2026-03-07T23:19:03.882644</dc:date>
    <dc:format>image/svg+xml</dc:format>
    <dc:creator>
     <cc:Agent>
      <dc:title>Matplotlib v3.10.8, https://matplotlib.org/</dc:title>
     </cc:Agent>
    </dc:creator>
   </cc:Work>
  </rdf:RDF>
 </metadata>
 <defs>
  <style type="text/css">*{stroke-linejoin: round; stroke-linecap: butt}</style>
 </defs>
 <g id="figure_1">
  <g id="patch_1">
   <path d="M 0 310.86825 
L 385.49325 310.86825 
L 385.49325 0 
L 0 0 
L 0 310.86825 
z
" style="fill: none"/>
  </g>
  <g id="axes_1">
   <g id="patch_2">
    <path d="M 53.328125 273.312 
L 319.440125 273.312 
L 319.440125 7.2 
L 53.328125 7.2 
L 53.328125 273.312 
z
" style="fill: none"/>
   </g>
   <g id="patch_3">
    <path d="M 65.424125 273.312 
L 67.843325 273.312 
L 67.843325 273.312 
L 65.424125 273.312 
z
" clip-path="url(#p13a391a2b7)" style="fill: #9370db; opacity: 0.5"/>
   </g>
   <g id="patch_4">
    <path d="M 67.843325 273.312 
L 70.262525 273.312 
L 70.262525 262.960389 
L 67.843325 262.960389 
z
" clip-path="url(#p13a391a2b7)" style="fill: #9370db; opacity: 0.5"/>
   </g>
   <g id="patch_5">
    <path d="M 70.262525 273.312 
L 72.681725 273.312 
L 72.681725 240.686979 
L 70.262525 240.686979 
z
" clip-path="url(#p13a391a2b7)" style="fill: #9370db; opacity: 0.5"/>
   </g>
   <g id="patch_6">
    <path d="M 72.681725 273.312 
L 75.100925 273.312 
L 75.100925 222.658893 
L 72.681725 222.658893 
z
" clip-path="url(#p13a391a2b7)" style="fill: #9370db; opacity: 0.5"/>
   </g>
   <g id="patch_7">
    <path d="M 75.100925 273.312 
L 77.520125 273.312 
L 77.520125 202.188292 
L 75.100925 202.188292 
z
" clip-path="url(#p13a391a2b7)" style="fill: #9370db; opacity: 0.5"/>
   </g>
   <g id="patch_8">
    <path d="M 77.520125 273.312 
L 79.939325 273.312 
L 79.939325 185.614084 
L 77.520125 185.614084 
z
" clip-path="url(#p13a391a2b7)" style="fill: #9370db; opacity: 0.5"/>
   </g>
   <g id="patch_9">
    <path d="M 79.939325 273.312 
L 82.358525 273.312 
L 82.358525 168.807255 
L 79.939325 168.807255 
z
" clip-path="url(#p13a391a2b7)" style="fill: #9370db; opacity: 0.5"/>
   </g>
   <g id="patch_10">
    <path d="M 82.358525 273.312 
L 84.777725 273.312 
L 84.777725 152.989063 
L 82.358525 152.989063 
z
" clip-path="url(#p13a391a2b7)" style="fill: #9370db; opacity: 0.5"/>
   </g>
   <g id="patch_11">
    <path d="M 84.777725 273.312 
L 87.196925 273.312 
L 87.196925 134.786511 
L 84.777725 134.786511 
z
" clip-path="url(#p13a391a2b7)" style="fill: #9370db; opacity: 0.5"/>
   </g>
   <g id="patch_12">
    <path d="M 87.196925 273.312 
L 89.616125 273.312 
L 89.616125 121.468989 
L 87.196925 121.468989 
z
" clip-path="url(#p13a391a2b7)" style="fill: #9370db; opacity: 0.5"/>
   </g>
   <g id="patch_13">
    <path d="M 89.616125 273.312 
L 92.035325 273.312 
L 92.035325 108.674864 
L 89.616125 108.674864 
z
" clip-path="url(#p13a391a2b7)" style="fill: #9370db; opacity: 0.5"/>
   </g>
   <g id="patch_14">
    <path d="M 92.035325 273.312 
L 94.454525 273.312 
L 94.454525 104.022454 
L 92.035325 104.022454 
z
" clip-path="url(#p13a391a2b7)" style="fill: #9370db; opacity: 0.5"/>
   </g>
   <g id="patch_15">
    <path d="M 94.454525 273.312 
L 96.873725 273.312 
L 96.873725 91.112018 
L 94.454525 91.112018 
z
" clip-path="url(#p13a391a2b7)" style="fill: #9370db; opacity: 0.5"/>
   </g>
   <g id="patch_16">
    <path d="M 96.873725 273.312 
L 99.292925 273.312 
L 99.292925 81.690889 
L 96.873725 81.690889 
z
" clip-path="url(#p13a391a2b7)" style="fill: #9370db; opacity: 0.5"/>
   </g>
   <g id="patch_17">
    <path d="M 99.292925 273.312 
L 101.712125 273.312 
L 101.712125 78.666823 
L 99.292925 78.666823 
z
" clip-path="url(#p13a391a2b7)" style="fill: #9370db; opacity: 0.5"/>
   </g>
   <g id="patch_18">
    <path d="M 101.712125 273.312 
L 104.131325 273.312 
L 104.131325 73.665483 
L 101.712125 73.665483 
z
" clip-path="url(#p13a391a2b7)" style="fill: #9370db; opacity: 0.5"/>
   </g>
   <g id="patch_19">
    <path d="M 104.131325 273.312 
L 106.550525 273.312 
L 106.550525 70.292486 
L 104.131325 70.292486 
z
" clip-path="url(#p13a391a2b7)" style="fill: #9370db; opacity: 0.5"/>
   </g>
   <g id="patch_20">
    <path d="M 106.550525 273.312 
L 108.969725 273.312 
L 108.969725 63.488338 
L 106.550525 63.488338 
z
" clip-path="url(#p13a391a2b7)" style="fill: #9370db; opacity: 0.5"/>
   </g>
   <g id="patch_21">
    <path d="M 108.969725 273.312 
L 111.388925 273.312 
L 111.388925 68.140747 
L 108.969725 68.140747 
z
" clip-path="url(#p13a391a2b7)" style="fill: #9370db; opacity: 0.5"/>
   </g>
   <g id="patch_22">
    <path d="M 111.388925 273.312 
L 113.808125 273.312 
L 113.808125 61.162133 
L 111.388925 61.162133 
z
" clip-path="url(#p13a391a2b7)" style="fill: #9370db; opacity: 0.5"/>
   </g>
   <g id="patch_23">
    <path d="M 113.808125 273.312 
L 116.227325 273.312 
L 116.227325 55.637397 
L 113.808125 55.637397 
z
" clip-path="url(#p13a391a2b7)" style="fill: #9370db; opacity: 0.5"/>
   </g>
   <g id="patch_24">
    <path d="M 116.227325 273.312 
L 118.646525 273.312 
L 118.646525 58.428843 
L 116.227325 58.428843 
z
" clip-path="url(#p13a391a2b7)" style="fill: #9370db; opacity: 0.5"/>
   </g>
   <g id="patch_25">
    <path d="M 118.646525 273.312 
L 121.065725 273.312 
L 121.065725 59.882721 
L 118.646525 59.882721 
z
" clip-path="url(#p13a391a2b7)" style="fill: #9370db; opacity: 0.5"/>
   </g>
   <g id="patch_26">
    <path d="M 121.065725 273.312 
L 123.484925 273.312 
L 123.484925 70.059866 
L 121.065725 70.059866 
z
" clip-path="url(#p13a391a2b7)" style="fill: #9370db; opacity: 0.5"/>
   </g>
   <g id="patch_27">
    <path d="M 123.484925 273.312 
L 125.904125 273.312 
L 125.904125 72.967622 
L 123.484925 72.967622 
z
" clip-path="url(#p13a391a2b7)" style="fill: #9370db; opacity: 0.5"/>
   </g>
   <g id="patch_28">
    <path d="M 125.904125 273.312 
L 128.323325 273.312 
L 128.323325 67.15211 
L 125.904125 67.15211 
z
" clip-path="url(#p13a391a2b7)" style="fill: #9370db; opacity: 0.5"/>
   </g>
   <g id="patch_29">
    <path d="M 128.323325 273.312 
L 130.742525 273.312 
L 130.742525 72.444226 
L 128.323325 72.444226 
z
" clip-path="url(#p13a391a2b7)" style="fill: #9370db; opacity: 0.5"/>
   </g>
   <g id="patch_30">
    <path d="M 130.742525 273.312 
L 133.161725 273.312 
L 133.161725 73.549173 
L 130.742525 73.549173 
z
" clip-path="url(#p13a391a2b7)" style="fill: #9370db; opacity: 0.5"/>
   </g>
   <g id="patch_31">
    <path d="M 133.161725 273.312 
L 135.580925 273.312 
L 135.580925 81.109338 
L 133.161725 81.109338 
z
" clip-path="url(#p13a391a2b7)" style="fill: #9370db; opacity: 0.5"/>
   </g>
   <g id="patch_32">
    <path d="M 135.580925 273.312 
L 138.000125 273.312 
L 138.000125 78.724978 
L 135.580925 78.724978 
z
" clip-path="url(#p13a391a2b7)" style="fill: #9370db; opacity: 0.5"/>
   </g>
   <g id="patch_33">
    <path d="M 138.000125 273.312 
L 140.419325 273.312 
L 140.419325 74.072569 
L 138.000125 74.072569 
z
" clip-path="url(#p13a391a2b7)" style="fill: #9370db; opacity: 0.5"/>
   </g>
   <g id="patch_34">
    <path d="M 140.419325 273.312 
L 142.838525 273.312 
L 142.838525 83.377388 
L 140.419325 83.377388 
z
" clip-path="url(#p13a391a2b7)" style="fill: #9370db; opacity: 0.5"/>
   </g>
   <g id="patch_35">
    <path d="M 142.838525 273.312 
L 145.257725 273.312 
L 145.257725 81.516424 
L 142.838525 81.516424 
z
" clip-path="url(#p13a391a2b7)" style="fill: #9370db; opacity: 0.5"/>
   </g>
   <g id="patch_36">
    <path d="M 145.257725 273.312 
L 147.676925 273.312 
L 147.676925 82.505061 
L 145.257725 82.505061 
z
" clip-path="url(#p13a391a2b7)" style="fill: #9370db; opacity: 0.5"/>
   </g>
   <g id="patch_37">
    <path d="M 147.676925 273.312 
L 150.096125 273.312 
L 150.096125 87.506401 
L 147.676925 87.506401 
z
" clip-path="url(#p13a391a2b7)" style="fill: #9370db; opacity: 0.5"/>
   </g>
   <g id="patch_38">
    <path d="M 150.096125 273.312 
L 152.515325 273.312 
L 152.515325 85.470972 
L 150.096125 85.470972 
z
" clip-path="url(#p13a391a2b7)" style="fill: #9370db; opacity: 0.5"/>
   </g>
   <g id="patch_39">
    <path d="M 152.515325 273.312 
L 154.934525 273.312 
L 154.934525 78.724978 
L 152.515325 78.724978 
z
" clip-path="url(#p13a391a2b7)" style="fill: #9370db; opacity: 0.5"/>
   </g>
   <g id="patch_40">
    <path d="M 154.934525 273.312 
L 157.353725 273.312 
L 157.353725 75.933533 
L 154.934525 75.933533 
z
" clip-path="url(#p13a391a2b7)" style="fill: #9370db; opacity: 0.5"/>
   </g>
   <g id="patch_41">
    <path d="M 157.353725 273.312 
L 159.772925 273.312 
L 159.772925 81.225648 
L 157.353725 81.225648 
z
" clip-path="url(#p13a391a2b7)" style="fill: #9370db; opacity: 0.5"/>
   </g>
   <g id="patch_42">
    <path d="M 159.772925 273.312 
L 162.192125 273.312 
L 162.192125 78.550513 
L 159.772925 78.550513 
z
" clip-path="url(#p13a391a2b7)" style="fill: #9370db; opacity: 0.5"/>
   </g>
   <g id="patch_43">
    <path d="M 162.192125 273.312 
L 164.611325 273.312 
L 164.611325 74.247034 
L 162.192125 74.247034 
z
" clip-path="url(#p13a391a2b7)" style="fill: #9370db; opacity: 0.5"/>
   </g>
   <g id="patch_44">
    <path d="M 164.611325 273.312 
L 167.030525 273.312 
L 167.030525 76.573239 
L 164.611325 76.573239 
z
" clip-path="url(#p13a391a2b7)" style="fill: #9370db; opacity: 0.5"/>
   </g>
   <g id="patch_45">
    <path d="M 167.030525 273.312 
L 169.449725 273.312 
L 169.449725 75.061206 
L 167.030525 75.061206 
z
" clip-path="url(#p13a391a2b7)" style="fill: #9370db; opacity: 0.5"/>
   </g>
   <g id="patch_46">
    <path d="M 169.449725 273.312 
L 171.868925 273.312 
L 171.868925 74.363345 
L 169.449725 74.363345 
z
" clip-path="url(#p13a391a2b7)" style="fill: #9370db; opacity: 0.5"/>
   </g>
   <g id="patch_47">
    <path d="M 171.868925 273.312 
L 174.288125 273.312 
L 174.288125 69.187539 
L 171.868925 69.187539 
z
" clip-path="url(#p13a391a2b7)" style="fill: #9370db; opacity: 0.5"/>
   </g>
   <g id="patch_48">
    <path d="M 174.288125 273.312 
L 176.707325 273.312 
L 176.707325 69.187539 
L 174.288125 69.187539 
z
" clip-path="url(#p13a391a2b7)" style="fill: #9370db; opacity: 0.5"/>
   </g>
   <g id="patch_49">
    <path d="M 176.707325 273.312 
L 179.126525 273.312 
L 179.126525 61.685529 
L 176.707325 61.685529 
z
" clip-path="url(#p13a391a2b7)" style="fill: #9370db; opacity: 0.5"/>
   </g>
   <g id="patch_50">
    <path d="M 179.126525 273.312 
L 181.545725 273.312 
L 181.545725 63.953579 
L 179.126525 63.953579 
z
" clip-path="url(#p13a391a2b7)" style="fill: #9370db; opacity: 0.5"/>
   </g>
   <g id="patch_51">
    <path d="M 181.545725 273.312 
L 183.964925 273.312 
L 183.964925 64.942216 
L 181.545725 64.942216 
z
" clip-path="url(#p13a391a2b7)" style="fill: #9370db; opacity: 0.5"/>
   </g>
   <g id="patch_52">
    <path d="M 183.964925 273.312 
L 186.384125 273.312 
L 186.384125 60.057186 
L 183.964925 60.057186 
z
" clip-path="url(#p13a391a2b7)" style="fill: #9370db; opacity: 0.5"/>
   </g>
   <g id="patch_53">
    <path d="M 186.384125 273.312 
L 188.803325 273.312 
L 188.803325 63.139407 
L 186.384125 63.139407 
z
" clip-path="url(#p13a391a2b7)" style="fill: #9370db; opacity: 0.5"/>
   </g>
   <g id="patch_54">
    <path d="M 188.803325 273.312 
L 191.222525 273.312 
L 191.222525 65.698232 
L 188.803325 65.698232 
z
" clip-path="url(#p13a391a2b7)" style="fill: #9370db; opacity: 0.5"/>
   </g>
   <g id="patch_55">
    <path d="M 191.222525 273.312 
L 193.641725 273.312 
L 193.641725 59.126704 
L 191.222525 59.126704 
z
" clip-path="url(#p13a391a2b7)" style="fill: #9370db; opacity: 0.5"/>
   </g>
   <g id="patch_56">
    <path d="M 193.641725 273.312 
L 196.060925 273.312 
L 196.060925 59.53379 
L 193.641725 59.53379 
z
" clip-path="url(#p13a391a2b7)" style="fill: #9370db; opacity: 0.5"/>
   </g>
   <g id="patch_57">
    <path d="M 196.060925 273.312 
L 198.480125 273.312 
L 198.480125 55.288466 
L 196.060925 55.288466 
z
" clip-path="url(#p13a391a2b7)" style="fill: #9370db; opacity: 0.5"/>
   </g>
   <g id="patch_58">
    <path d="M 198.480125 273.312 
L 200.899325 273.312 
L 200.899325 54.125364 
L 198.480125 54.125364 
z
" clip-path="url(#p13a391a2b7)" style="fill: #9370db; opacity: 0.5"/>
   </g>
   <g id="patch_59">
    <path d="M 200.899325 273.312 
L 203.318525 273.312 
L 203.318525 54.939536 
L 200.899325 54.939536 
z
" clip-path="url(#p13a391a2b7)" style="fill: #9370db; opacity: 0.5"/>
   </g>
   <g id="patch_60">
    <path d="M 203.318525 273.312 
L 205.737725 273.312 
L 205.737725 50.054506 
L 203.318525 50.054506 
z
" clip-path="url(#p13a391a2b7)" style="fill: #9370db; opacity: 0.5"/>
   </g>
   <g id="patch_61">
    <path d="M 205.737725 273.312 
L 208.156925 273.312 
L 208.156925 51.857314 
L 205.737725 51.857314 
z
" clip-path="url(#p13a391a2b7)" style="fill: #9370db; opacity: 0.5"/>
   </g>
   <g id="patch_62">
    <path d="M 208.156925 273.312 
L 210.576125 273.312 
L 210.576125 54.067209 
L 208.156925 54.067209 
z
" clip-path="url(#p13a391a2b7)" style="fill: #9370db; opacity: 0.5"/>
   </g>
   <g id="patch_63">
    <path d="M 210.576125 273.312 
L 212.995325 273.312 
L 212.995325 48.775093 
L 210.576125 48.775093 
z
" clip-path="url(#p13a391a2b7)" style="fill: #9370db; opacity: 0.5"/>
   </g>
   <g id="patch_64">
    <path d="M 212.995325 273.312 
L 215.414525 273.312 
L 215.414525 43.657443 
L 212.995325 43.657443 
z
" clip-path="url(#p13a391a2b7)" style="fill: #9370db; opacity: 0.5"/>
   </g>
   <g id="patch_65">
    <path d="M 215.414525 273.312 
L 217.833725 273.312 
L 217.833725 44.238994 
L 215.414525 44.238994 
z
" clip-path="url(#p13a391a2b7)" style="fill: #9370db; opacity: 0.5"/>
   </g>
   <g id="patch_66">
    <path d="M 217.833725 273.312 
L 220.252925 273.312 
L 220.252925 49.996351 
L 217.833725 49.996351 
z
" clip-path="url(#p13a391a2b7)" style="fill: #9370db; opacity: 0.5"/>
   </g>
   <g id="patch_67">
    <path d="M 220.252925 273.312 
L 222.672125 273.312 
L 222.672125 43.482978 
L 220.252925 43.482978 
z
" clip-path="url(#p13a391a2b7)" style="fill: #9370db; opacity: 0.5"/>
   </g>
   <g id="patch_68">
    <path d="M 222.672125 273.312 
L 225.091325 273.312 
L 225.091325 50.228971 
L 222.672125 50.228971 
z
" clip-path="url(#p13a391a2b7)" style="fill: #9370db; opacity: 0.5"/>
   </g>
   <g id="patch_69">
    <path d="M 225.091325 273.312 
L 227.510525 273.312 
L 227.510525 39.819205 
L 225.091325 39.819205 
z
" clip-path="url(#p13a391a2b7)" style="fill: #9370db; opacity: 0.5"/>
   </g>
   <g id="patch_70">
    <path d="M 227.510525 273.312 
L 229.929725 273.312 
L 229.929725 45.169476 
L 227.510525 45.169476 
z
" clip-path="url(#p13a391a2b7)" style="fill: #9370db; opacity: 0.5"/>
   </g>
   <g id="patch_71">
    <path d="M 229.929725 273.312 
L 232.348925 273.312 
L 232.348925 40.051826 
L 229.929725 40.051826 
z
" clip-path="url(#p13a391a2b7)" style="fill: #9370db; opacity: 0.5"/>
   </g>
   <g id="patch_72">
    <path d="M 232.348925 273.312 
L 234.768125 273.312 
L 234.768125 39.179499 
L 232.348925 39.179499 
z
" clip-path="url(#p13a391a2b7)" style="fill: #9370db; opacity: 0.5"/>
   </g>
   <g id="patch_73">
    <path d="M 234.768125 273.312 
L 237.187325 273.312 
L 237.187325 40.749687 
L 234.768125 40.749687 
z
" clip-path="url(#p13a391a2b7)" style="fill: #9370db; opacity: 0.5"/>
   </g>
   <g id="patch_74">
    <path d="M 237.187325 273.312 
L 239.606525 273.312 
L 239.606525 39.87736 
L 237.187325 39.87736 
z
" clip-path="url(#p13a391a2b7)" style="fill: #9370db; opacity: 0.5"/>
   </g>
   <g id="patch_75">
    <path d="M 239.606525 273.312 
L 242.025725 273.312 
L 242.025725 45.983648 
L 239.606525 45.983648 
z
" clip-path="url(#p13a391a2b7)" style="fill: #9370db; opacity: 0.5"/>
   </g>
   <g id="patch_76">
    <path d="M 242.025725 273.312 
L 244.444925 273.312 
L 244.444925 38.597948 
L 242.025725 38.597948 
z
" clip-path="url(#p13a391a2b7)" style="fill: #9370db; opacity: 0.5"/>
   </g>
   <g id="patch_77">
    <path d="M 244.444925 273.312 
L 246.864125 273.312 
L 246.864125 42.087255 
L 244.444925 42.087255 
z
" clip-path="url(#p13a391a2b7)" style="fill: #9370db; opacity: 0.5"/>
   </g>
   <g id="patch_78">
    <path d="M 246.864125 273.312 
L 249.283325 273.312 
L 249.283325 33.480297 
L 246.864125 33.480297 
z
" clip-path="url(#p13a391a2b7)" style="fill: #9370db; opacity: 0.5"/>
   </g>
   <g id="patch_79">
    <path d="M 249.283325 273.312 
L 251.702525 273.312 
L 251.702525 44.8787 
L 249.283325 44.8787 
z
" clip-path="url(#p13a391a2b7)" style="fill: #9370db; opacity: 0.5"/>
   </g>
   <g id="patch_80">
    <path d="M 251.702525 273.312 
L 254.121725 273.312 
L 254.121725 35.632037 
L 251.702525 35.632037 
z
" clip-path="url(#p13a391a2b7)" style="fill: #9370db; opacity: 0.5"/>
   </g>
   <g id="patch_81">
    <path d="M 254.121725 273.312 
L 256.540925 273.312 
L 256.540925 35.283106 
L 254.121725 35.283106 
z
" clip-path="url(#p13a391a2b7)" style="fill: #9370db; opacity: 0.5"/>
   </g>
   <g id="patch_82">
    <path d="M 256.540925 273.312 
L 258.960125 273.312 
L 258.960125 35.457571 
L 256.540925 35.457571 
z
" clip-path="url(#p13a391a2b7)" style="fill: #9370db; opacity: 0.5"/>
   </g>
   <g id="patch_83">
    <path d="M 258.960125 273.312 
L 261.379325 273.312 
L 261.379325 35.399416 
L 258.960125 35.399416 
z
" clip-path="url(#p13a391a2b7)" style="fill: #9370db; opacity: 0.5"/>
   </g>
   <g id="patch_84">
    <path d="M 261.379325 273.312 
L 263.798525 273.312 
L 263.798525 30.572542 
L 261.379325 30.572542 
z
" clip-path="url(#p13a391a2b7)" style="fill: #9370db; opacity: 0.5"/>
   </g>
   <g id="patch_85">
    <path d="M 263.798525 273.312 
L 266.217725 273.312 
L 266.217725 25.338581 
L 263.798525 25.338581 
z
" clip-path="url(#p13a391a2b7)" style="fill: #9370db; opacity: 0.5"/>
   </g>
   <g id="patch_86">
    <path d="M 266.217725 273.312 
L 268.636925 273.312 
L 268.636925 29.816525 
L 266.217725 29.816525 
z
" clip-path="url(#p13a391a2b7)" style="fill: #9370db; opacity: 0.5"/>
   </g>
   <g id="patch_87">
    <path d="M 268.636925 273.312 
L 271.056125 273.312 
L 271.056125 31.212248 
L 268.636925 31.212248 
z
" clip-path="url(#p13a391a2b7)" style="fill: #9370db; opacity: 0.5"/>
   </g>
   <g id="patch_88">
    <path d="M 271.056125 273.312 
L 273.475325 273.312 
L 273.475325 20.628017 
L 271.056125 20.628017 
z
" clip-path="url(#p13a391a2b7)" style="fill: #9370db; opacity: 0.5"/>
   </g>
   <g id="patch_89">
    <path d="M 273.475325 273.312 
L 275.894525 273.312 
L 275.894525 28.188182 
L 273.475325 28.188182 
z
" clip-path="url(#p13a391a2b7)" style="fill: #9370db; opacity: 0.5"/>
   </g>
   <g id="patch_90">
    <path d="M 275.894525 273.312 
L 278.313725 273.312 
L 278.313725 28.478957 
L 275.894525 28.478957 
z
" clip-path="url(#p13a391a2b7)" style="fill: #9370db; opacity: 0.5"/>
   </g>
   <g id="patch_91">
    <path d="M 278.313725 273.312 
L 280.732925 273.312 
L 280.732925 29.234974 
L 278.313725 29.234974 
z
" clip-path="url(#p13a391a2b7)" style="fill: #9370db; opacity: 0.5"/>
   </g>
   <g id="patch_92">
    <path d="M 280.732925 273.312 
L 283.152125 273.312 
L 283.152125 24.117324 
L 280.732925 24.117324 
z
" clip-path="url(#p13a391a2b7)" style="fill: #9370db; opacity: 0.5"/>
   </g>
   <g id="patch_93">
    <path d="M 283.152125 273.312 
L 285.571325 273.312 
L 285.571325 24.349944 
L 283.152125 24.349944 
z
" clip-path="url(#p13a391a2b7)" style="fill: #9370db; opacity: 0.5"/>
   </g>
   <g id="patch_94">
    <path d="M 285.571325 273.312 
L 287.990525 273.312 
L 287.990525 20.802482 
L 285.571325 20.802482 
z
" clip-path="url(#p13a391a2b7)" style="fill: #9370db; opacity: 0.5"/>
   </g>
   <g id="patch_95">
    <path d="M 287.990525 273.312 
L 290.409725 273.312 
L 290.409725 23.593927 
L 287.990525 23.593927 
z
" clip-path="url(#p13a391a2b7)" style="fill: #9370db; opacity: 0.5"/>
   </g>
   <g id="patch_96">
    <path d="M 290.409725 273.312 
L 292.828925 273.312 
L 292.828925 31.154093 
L 290.409725 31.154093 
z
" clip-path="url(#p13a391a2b7)" style="fill: #9370db; opacity: 0.5"/>
   </g>
   <g id="patch_97">
    <path d="M 292.828925 273.312 
L 295.248125 273.312 
L 295.248125 19.872 
L 292.828925 19.872 
z
" clip-path="url(#p13a391a2b7)" style="fill: #9370db; opacity: 0.5"/>
   </g>
   <g id="patch_98">
    <path d="M 295.248125 273.312 
L 297.667325 273.312 
L 297.667325 25.454891 
L 295.248125 25.454891 
z
" clip-path="url(#p13a391a2b7)" style="fill: #9370db; opacity: 0.5"/>
   </g>
   <g id="patch_99">
    <path d="M 297.667325 273.312 
L 300.086525 273.312 
L 300.086525 29.525749 
L 297.667325 29.525749 
z
" clip-path="url(#p13a391a2b7)" style="fill: #9370db; opacity: 0.5"/>
   </g>
   <g id="patch_100">
    <path d="M 300.086525 273.312 
L 302.505725 273.312 
L 302.505725 31.386713 
L 300.086525 31.386713 
z
" clip-path="url(#p13a391a2b7)" style="fill: #9370db; opacity: 0.5"/>
   </g>
   <g id="patch_101">
    <path d="M 302.505725 273.312 
L 304.924925 273.312 
L 304.924925 28.246337 
L 302.505725 28.246337 
z
" clip-path="url(#p13a391a2b7)" style="fill: #9370db; opacity: 0.5"/>
   </g>
   <g id="patch_102">
    <path d="M 304.924925 273.312 
L 307.344125 273.312 
L 307.344125 25.280426 
L 304.924925 25.280426 
z
" clip-path="url(#p13a391a2b7)" style="fill: #9370db; opacity: 0.5"/>
   </g>
   <g id="matplotlib.axis_1">
    <g id="xtick_1">
     <g id="line2d_1">
      <defs>
       <path id="m636ec55fbe" d="M 0 0 
L 0 3.5 
" style="stroke: #ffffff; stroke-width: 0.8"/>
      </defs>
      <g>
       <use xlink:href="#m636ec55fbe" x="65.424125" y="273.312" style="fill: #ffffff; stroke: #ffffff; stroke-width: 0.8"/>
      </g>
     </g>
     <g id="text_1">
      <!-- 0.0 -->
      <g style="fill: #ffffff" transform="translate(57.472563 287.910437) scale(0.1 -0.1)">
       <defs>
        <path id="DejaVuSans-30" d="M 2034 4250 
Q 1547 4250 1301 3770 
Q 1056 3291 1056 2328 
Q 1056 1369 1301 889 
Q 1547 409 2034 409 
Q 2525 409 2770 889 
Q 3016 1369 3016 2328 
Q 3016 3291 2770 3770 
Q 2525 4250 2034 4250 
z
M 2034 4750 
Q 2819 4750 3233 4129 
Q 3647 3509 3647 2328 
Q 3647 1150 3233 529 
Q 2819 -91 2034 -91 
Q 1250 -91 836 529 
Q 422 1150 422 2328 
Q 422 3509 836 4129 
Q 1250 4750 2034 4750 
z
" transform="scale(0.015625)"/>
        <path id="DejaVuSans-2e" d="M 684 794 
L 1344 794 
L 1344 0 
L 684 0 
L 684 794 
z
" transform="scale(0.015625)"/>
       </defs>
       <use xlink:href="#DejaVuSans-30"/>
       <use xlink:href="#DejaVuSans-2e" transform="translate(63.623047 0)"/>
       <use xlink:href="#DejaVuSans-30" transform="translate(95.410156 0)"/>
      </g>
     </g>
    </g>
    <g id="xtick_2">
     <g id="line2d_2">
      <g>
       <use xlink:href="#m636ec55fbe" x="113.324285" y="273.312" style="fill: #ffffff; stroke: #ffffff; stroke-width: 0.8"/>
      </g>
     </g>
     <g id="text_2">
      <!-- 0.2 -->
      <g style="fill: #ffffff" transform="translate(105.372722 287.910437) scale(0.1 -0.1)">
       <defs>
        <path id="DejaVuSans-32" d="M 1228 531 
L 3431 531 
L 3431 0 
L 469 0 
L 469 531 
Q 828 903 1448 1529 
Q 2069 2156 2228 2338 
Q 2531 2678 2651 2914 
Q 2772 3150 2772 3378 
Q 2772 3750 2511 3984 
Q 2250 4219 1831 4219 
Q 1534 4219 1204 4116 
Q 875 4013 500 3803 
L 500 4441 
Q 881 4594 1212 4672 
Q 1544 4750 1819 4750 
Q 2544 4750 2975 4387 
Q 3406 4025 3406 3419 
Q 3406 3131 3298 2873 
Q 3191 2616 2906 2266 
Q 2828 2175 2409 1742 
Q 1991 1309 1228 531 
z
" transform="scale(0.015625)"/>
       </defs>
       <use xlink:href="#DejaVuSans-30"/>
       <use xlink:href="#DejaVuSans-2e" transform="translate(63.623047 0)"/>
       <use xlink:href="#DejaVuSans-32" transform="translate(95.410156 0)"/>
      </g>
     </g>
    </g>
    <g id="xtick_3">
     <g id="line2d_3">
      <g>
       <use xlink:href="#m636ec55fbe" x="161.224445" y="273.312" style="fill: #ffffff; stroke: #ffffff; stroke-width: 0.8"/>
      </g>
     </g>
     <g id="text_3">
      <!-- 0.4 -->
      <g style="fill: #ffffff" transform="translate(153.272883 287.910437) scale(0.1 -0.1)">
       <defs>
        <path id="DejaVuSans-34" d="M 2419 4116 
L 825 1625 
L 2419 1625 
L 2419 4116 
z
M 2253 4666 
L 3047 4666 
L 3047 1625 
L 3713 1625 
L 3713 1100 
L 3047 1100 
L 3047 0 
L 2419 0 
L 2419 1100 
L 313 1100 
L 313 1709 
L 2253 4666 
z
" transform="scale(0.015625)"/>
       </defs>
       <use xlink:href="#DejaVuSans-30"/>
       <use xlink:href="#DejaVuSans-2e" transform="translate(63.623047 0)"/>
       <use xlink:href="#DejaVuSans-34" transform="translate(95.410156 0)"/>
      </g>
     </g>
    </g>
    <g id="xtick_4">
     <g id="line2d_4">
      <g>
       <use xlink:href="#m636ec55fbe" x="209.124605" y="273.312" style="fill: #ffffff; stroke: #ffffff; stroke-width: 0.8"/>
      </g>
     </g>
     <g id="text_4">
      <!-- 0.6 -->
      <g style="fill: #ffffff" transform="translate(201.173042 287.910437) scale(0.1 -0.1)">
       <defs>
        <path id="DejaVuSans-36" d="M 2113 2584 
Q 1688 2584 1439 2293 
Q 1191 2003 1191 1497 
Q 1191 994 1439 701 
Q 1688 409 2113 409 
Q 2538 409 2786 701 
Q 3034 994 3034 1497 
Q 3034 2003 2786 2293 
Q 2538 2584 2113 2584 
z
M 3366 4563 
L 3366 3988 
Q 3128 4100 2886 4159 
Q 2644 4219 2406 4219 
Q 1781 4219 1451 3797 
Q 1122 3375 1075 2522 
Q 1259 2794 1537 2939 
Q 1816 3084 2150 3084 
Q 2853 3084 3261 2657 
Q 3669 2231 3669 1497 
Q 3669 778 3244 343 
Q 2819 -91 2113 -91 
Q 1303 -91 875 529 
Q 447 1150 447 2328 
Q 447 3434 972 4092 
Q 1497 4750 2381 4750 
Q 2619 4750 2861 4703 
Q 3103 4656 3366 4563 
z
" transform="scale(0.015625)"/>
       </defs>
       <use xlink:href="#DejaVuSans-30"/>
       <use xlink:href="#DejaVuSans-2e" transform="translate(63.623047 0)"/>
       <use xlink:href="#DejaVuSans-36" transform="translate(95.410156 0)"/>
      </g>
     </g>
    </g>
    <g id="xtick_5">
     <g id="line2d_5">
      <g>
       <use xlink:href="#m636ec55fbe" x="257.024765" y="273.312" style="fill: #ffffff; stroke: #ffffff; stroke-width: 0.8"/>
      </g>
     </g>
     <g id="text_5">
      <!-- 0.8 -->
      <g style="fill: #ffffff" transform="translate(249.073202 287.910437) scale(0.1 -0.1)">
       <defs>
        <path id="DejaVuSans-38" d="M 2034 2216 
Q 1584 2216 1326 1975 
Q 1069 1734 1069 1313 
Q 1069 891 1326 650 
Q 1584 409 2034 409 
Q 2484 409 2743 651 
Q 3003 894 3003 1313 
Q 3003 1734 2745 1975 
Q 2488 2216 2034 2216 
z
M 1403 2484 
Q 997 2584 770 2862 
Q 544 3141 544 3541 
Q 544 4100 942 4425 
Q 1341 4750 2034 4750 
Q 2731 4750 3128 4425 
Q 3525 4100 3525 3541 
Q 3525 3141 3298 2862 
Q 3072 2584 2669 2484 
Q 3125 2378 3379 2068 
Q 3634 1759 3634 1313 
Q 3634 634 3220 271 
Q 2806 -91 2034 -91 
Q 1263 -91 848 271 
Q 434 634 434 1313 
Q 434 1759 690 2068 
Q 947 2378 1403 2484 
z
M 1172 3481 
Q 1172 3119 1398 2916 
Q 1625 2713 2034 2713 
Q 2441 2713 2670 2916 
Q 2900 3119 2900 3481 
Q 2900 3844 2670 4047 
Q 2441 4250 2034 4250 
Q 1625 4250 1398 4047 
Q 1172 3844 1172 3481 
z
" transform="scale(0.015625)"/>
       </defs>
       <use xlink:href="#DejaVuSans-30"/>
       <use xlink:href="#DejaVuSans-2e" transform="translate(63.623047 0)"/>
       <use xlink:href="#DejaVuSans-38" transform="translate(95.410156 0)"/>
      </g>
     </g>
    </g>
    <g id="xtick_6">
     <g id="line2d_6">
      <g>
       <use xlink:href="#m636ec55fbe" x="304.924925" y="273.312" style="fill: #ffffff; stroke: #ffffff; stroke-width: 0.8"/>
      </g>
     </g>
     <g id="text_6">
      <!-- 1.0 -->
      <g style="fill: #ffffff" transform="translate(296.973362 287.910437) scale(0.1 -0.1)">
       <defs>
        <path id="DejaVuSans-31" d="M 794 531 
L 1825 531 
L 1825 4091 
L 703 3866 
L 703 4441 
L 1819 4666 
L 2450 4666 
L 2450 531 
L 3481 531 
L 3481 0 
L 794 0 
L 794 531 
z
" transform="scale(0.015625)"/>
       </defs>
       <use xlink:href="#DejaVuSans-31"/>
       <use xlink:href="#DejaVuSans-2e" transform="translate(63.623047 0)"/>
       <use xlink:href="#DejaVuSans-30" transform="translate(95.410156 0)"/>
      </g>
     </g>
    </g>
    <g id="text_7">
     <!-- radius -->
     <g style="fill: #ffffff" transform="translate(170.927875 301.588562) scale(0.1 -0.1)">
      <defs>
       <path id="DejaVuSans-72" d="M 2631 2963 
Q 2534 3019 2420 3045 
Q 2306 3072 2169 3072 
Q 1681 3072 1420 2755 
Q 1159 2438 1159 1844 
L 1159 0 
L 581 0 
L 581 3500 
L 1159 3500 
L 1159 2956 
Q 1341 3275 1631 3429 
Q 1922 3584 2338 3584 
Q 2397 3584 2469 3576 
Q 2541 3569 2628 3553 
L 2631 2963 
z
" transform="scale(0.015625)"/>
       <path id="DejaVuSans-61" d="M 2194 1759 
Q 1497 1759 1228 1600 
Q 959 1441 959 1056 
Q 959 750 1161 570 
Q 1363 391 1709 391 
Q 2188 391 2477 730 
Q 2766 1069 2766 1631 
L 2766 1759 
L 2194 1759 
z
M 3341 1997 
L 3341 0 
L 2766 0 
L 2766 531 
Q 2569 213 2275 61 
Q 1981 -91 1556 -91 
Q 1019 -91 701 211 
Q 384 513 384 1019 
Q 384 1609 779 1909 
Q 1175 2209 1959 2209 
L 2766 2209 
L 2766 2266 
Q 2766 2663 2505 2880 
Q 2244 3097 1772 3097 
Q 1472 3097 1187 3025 
Q 903 2953 641 2809 
L 641 3341 
Q 956 3463 1253 3523 
Q 1550 3584 1831 3584 
Q 2591 3584 2966 3190 
Q 3341 2797 3341 1997 
z
" transform="scale(0.015625)"/>
       <path id="DejaVuSans-64" d="M 2906 2969 
L 2906 4863 
L 3481 4863 
L 3481 0 
L 2906 0 
L 2906 525 
Q 2725 213 2448 61 
Q 2172 -91 1784 -91 
Q 1150 -91 751 415 
Q 353 922 353 1747 
Q 353 2572 751 3078 
Q 1150 3584 1784 3584 
Q 2172 3584 2448 3432 
Q 2725 3281 2906 2969 
z
M 947 1747 
Q 947 1113 1208 752 
Q 1469 391 1925 391 
Q 2381 391 2643 752 
Q 2906 1113 2906 1747 
Q 2906 2381 2643 2742 
Q 2381 3103 1925 3103 
Q 1469 3103 1208 2742 
Q 947 2381 947 1747 
z
" transform="scale(0.015625)"/>
       <path id="DejaVuSans-69" d="M 603 3500 
L 1178 3500 
L 1178 0 
L 603 0 
L 603 3500 
z
M 603 4863 
L 1178 4863 
L 1178 4134 
L 603 4134 
L 603 4863 
z
" transform="scale(0.015625)"/>
       <path id="DejaVuSans-75" d="M 544 1381 
L 544 3500 
L 1119 3500 
L 1119 1403 
Q 1119 906 1312 657 
Q 1506 409 1894 409 
Q 2359 409 2629 706 
Q 2900 1003 2900 1516 
L 2900 3500 
L 3475 3500 
L 3475 0 
L 2900 0 
L 2900 538 
Q 2691 219 2414 64 
Q 2138 -91 1772 -91 
Q 1169 -91 856 284 
Q 544 659 544 1381 
z
M 1991 3584 
L 1991 3584 
z
" transform="scale(0.015625)"/>
       <path id="DejaVuSans-73" d="M 2834 3397 
L 2834 2853 
Q 2591 2978 2328 3040 
Q 2066 3103 1784 3103 
Q 1356 3103 1142 2972 
Q 928 2841 928 2578 
Q 928 2378 1081 2264 
Q 1234 2150 1697 2047 
L 1894 2003 
Q 2506 1872 2764 1633 
Q 3022 1394 3022 966 
Q 3022 478 2636 193 
Q 2250 -91 1575 -91 
Q 1294 -91 989 -36 
Q 684 19 347 128 
L 347 722 
Q 666 556 975 473 
Q 1284 391 1588 391 
Q 1994 391 2212 530 
Q 2431 669 2431 922 
Q 2431 1156 2273 1281 
Q 2116 1406 1581 1522 
L 1381 1569 
Q 847 1681 609 1914 
Q 372 2147 372 2553 
Q 372 3047 722 3315 
Q 1072 3584 1716 3584 
Q 2034 3584 2315 3537 
Q 2597 3491 2834 3397 
z
" transform="scale(0.015625)"/>
      </defs>
      <use xlink:href="#DejaVuSans-72"/>
      <use xlink:href="#DejaVuSans-61" transform="translate(41.113281 0)"/>
      <use xlink:href="#DejaVuSans-64" transform="translate(102.392578 0)"/>
      <use xlink:href="#DejaVuSans-69" transform="translate(165.869141 0)"/>
      <use xlink:href="#DejaVuSans-75" transform="translate(193.652344 0)"/>
      <use xlink:href="#DejaVuSans-73" transform="translate(257.03125 0)"/>
     </g>
    </g>
   </g>
   <g id="matplotlib.axis_2">
    <g id="ytick_1">
     <g id="line2d_7">
      <defs>
       <path id="m32607bcd48" d="M 0 0 
L -3.5 0 
" style="stroke: #ffffff; stroke-width: 0.8"/>
      </defs>
      <g>
       <use xlink:href="#m32607bcd48" x="53.328125" y="273.312" style="fill: #ffffff; stroke: #ffffff; stroke-width: 0.8"/>
      </g>
     </g>
     <g id="text_8">
      <!-- 0 -->
      <g style="fill: #ffffff" transform="translate(39.965625 277.111219) scale(0.1 -0.1)">
       <use xlink:href="#DejaVuSans-30"/>
      </g>
     </g>
    </g>
    <g id="ytick_2">
     <g id="line2d_8">
      <g>
       <use xlink:href="#m32607bcd48" x="53.328125" y="215.156883" style="fill: #ffffff; stroke: #ffffff; stroke-width: 0.8"/>
      </g>
     </g>
     <g id="text_9">
      <!-- 1000 -->
      <g style="fill: #ffffff" transform="translate(20.878125 218.956102) scale(0.1 -0.1)">
       <use xlink:href="#DejaVuSans-31"/>
       <use xlink:href="#DejaVuSans-30" transform="translate(63.623047 0)"/>
       <use xlink:href="#DejaVuSans-30" transform="translate(127.246094 0)"/>
       <use xlink:href="#DejaVuSans-30" transform="translate(190.869141 0)"/>
      </g>
     </g>
    </g>
    <g id="ytick_3">
     <g id="line2d_9">
      <g>
       <use xlink:href="#m32607bcd48" x="53.328125" y="157.001766" style="fill: #ffffff; stroke: #ffffff; stroke-width: 0.8"/>
      </g>
     </g>
     <g id="text_10">
      <!-- 2000 -->
      <g style="fill: #ffffff" transform="translate(20.878125 160.800985) scale(0.1 -0.1)">
       <use xlink:href="#DejaVuSans-32"/>
       <use xlink:href="#DejaVuSans-30" transform="translate(63.623047 0)"/>
       <use xlink:href="#DejaVuSans-30" transform="translate(127.246094 0)"/>
       <use xlink:href="#DejaVuSans-30" transform="translate(190.869141 0)"/>
      </g>
     </g>
    </g>
    <g id="ytick_4">
     <g id="line2d_10">
      <g>
       <use xlink:href="#m32607bcd48" x="53.328125" y="98.846649" style="fill: #ffffff; stroke: #ffffff; stroke-width: 0.8"/>
      </g>
     </g>
     <g id="text_11">
      <!-- 3000 -->
      <g style="fill: #ffffff" transform="translate(20.878125 102.645868) scale(0.1 -0.1)">
       <defs>
        <path id="DejaVuSans-33" d="M 2597 2516 
Q 3050 2419 3304 2112 
Q 3559 1806 3559 1356 
Q 3559 666 3084 287 
Q 2609 -91 1734 -91 
Q 1441 -91 1130 -33 
Q 819 25 488 141 
L 488 750 
Q 750 597 1062 519 
Q 1375 441 1716 441 
Q 2309 441 2620 675 
Q 2931 909 2931 1356 
Q 2931 1769 2642 2001 
Q 2353 2234 1838 2234 
L 1294 2234 
L 1294 2753 
L 1863 2753 
Q 2328 2753 2575 2939 
Q 2822 3125 2822 3475 
Q 2822 3834 2567 4026 
Q 2313 4219 1838 4219 
Q 1578 4219 1281 4162 
Q 984 4106 628 3988 
L 628 4550 
Q 988 4650 1302 4700 
Q 1616 4750 1894 4750 
Q 2613 4750 3031 4423 
Q 3450 4097 3450 3541 
Q 3450 3153 3228 2886 
Q 3006 2619 2597 2516 
z
" transform="scale(0.015625)"/>
       </defs>
       <use xlink:href="#DejaVuSans-33"/>
       <use xlink:href="#DejaVuSans-30" transform="translate(63.623047 0)"/>
       <use xlink:href="#DejaVuSans-30" transform="translate(127.246094 0)"/>
       <use xlink:href="#DejaVuSans-30" transform="translate(190.869141 0)"/>
      </g>
     </g>
    </g>
    <g id="ytick_5">
     <g id="line2d_11">
      <g>
       <use xlink:href="#m32607bcd48" x="53.328125" y="40.691532" style="fill: #ffffff; stroke: #ffffff; stroke-width: 0.8"/>
      </g>
     </g>
     <g id="text_12">
      <!-- 4000 -->
      <g style="fill: #ffffff" transform="translate(20.878125 44.490751) scale(0.1 -0.1)">
       <use xlink:href="#DejaVuSans-34"/>
       <use xlink:href="#DejaVuSans-30" transform="translate(63.623047 0)"/>
       <use xlink:href="#DejaVuSans-30" transform="translate(127.246094 0)"/>
       <use xlink:href="#DejaVuSans-30" transform="translate(190.869141 0)"/>
      </g>
     </g>
    </g>
    <g id="text_13">
     <!-- pairs per shell -->
     <g style="fill: #ffffff" transform="translate(14.798438 175.656) rotate(-90) scale(0.1 -0.1)">
      <defs>
       <path id="DejaVuSans-70" d="M 1159 525 
L 1159 -1331 
L 581 -1331 
L 581 3500 
L 1159 3500 
L 1159 2969 
Q 1341 3281 1617 3432 
Q 1894 3584 2278 3584 
Q 2916 3584 3314 3078 
Q 3713 2572 3713 1747 
Q 3713 922 3314 415 
Q 2916 -91 2278 -91 
Q 1894 -91 1617 61 
Q 1341 213 1159 525 
z
M 3116 1747 
Q 3116 2381 2855 2742 
Q 2594 3103 2138 3103 
Q 1681 3103 1420 2742 
Q 1159 2381 1159 1747 
Q 1159 1113 1420 752 
Q 1681 391 2138 391 
Q 2594 391 2855 752 
Q 3116 1113 3116 1747 
z
" transform="scale(0.015625)"/>
       <path id="DejaVuSans-20" transform="scale(0.015625)"/>
       <path id="DejaVuSans-65" d="M 3597 1894 
L 3597 1613 
L 953 1613 
Q 991 1019 1311 708 
Q 1631 397 2203 397 
Q 2534 397 2845 478 
Q 3156 559 3463 722 
L 3463 178 
Q 3153 47 2828 -22 
Q 2503 -91 2169 -91 
Q 1331 -91 842 396 
Q 353 884 353 1716 
Q 353 2575 817 3079 
Q 1281 3584 2069 3584 
Q 2775 3584 3186 3129 
Q 3597 2675 3597 1894 
z
M 3022 2063 
Q 3016 2534 2758 2815 
Q 2500 3097 2075 3097 
Q 1594 3097 1305 2825 
Q 1016 2553 972 2059 
L 3022 2063 
z
" transform="scale(0.015625)"/>
       <path id="DejaVuSans-68" d="M 3513 2113 
L 3513 0 
L 2938 0 
L 2938 2094 
Q 2938 2591 2744 2837 
Q 2550 3084 2163 3084 
Q 1697 3084 1428 2787 
Q 1159 2491 1159 1978 
L 1159 0 
L 581 0 
L 581 4863 
L 1159 4863 
L 1159 2956 
Q 1366 3272 1645 3428 
Q 1925 3584 2291 3584 
Q 2894 3584 3203 3211 
Q 3513 2838 3513 2113 
z
" transform="scale(0.015625)"/>
       <path id="DejaVuSans-6c" d="M 603 4863 
L 1178 4863 
L 1178 0 
L 603 0 
L 603 4863 
z
" transform="scale(0.015625)"/>
      </defs>
      <use xlink:href="#DejaVuSans-70"/>
      <use xlink:href="#DejaVuSans-61" transform="translate(63.476562 0)"/>
      <use xlink:href="#DejaVuSans-69" transform="translate(124.755859 0)"/>
      <use xlink:href="#DejaVuSans-72" transform="translate(152.539062 0)"/>
      <use xlink:href="#DejaVuSans-73" transform="translate(193.652344 0)"/>
      <use xlink:href="#DejaVuSans-20" transform="translate(245.751953 0)"/>
      <use xlink:href="#DejaVuSans-70" transform="translate(277.539062 0)"/>
      <use xlink:href="#DejaVuSans-65" transform="translate(341.015625 0)"/>
      <use xlink:href="#DejaVuSans-72" transform="translate(402.539062 0)"/>
      <use xlink:href="#DejaVuSans-20" transform="translate(443.652344 0)"/>
      <use xlink:href="#DejaVuSans-73" transform="translate(475.439453 0)"/>
      <use xlink:href="#DejaVuSans-68" transform="translate(527.539062 0)"/>
      <use xlink:href="#DejaVuSans-65" transform="translate(590.917969 0)"/>
      <use xlink:href="#DejaVuSans-6c" transform="translate(652.441406 0)"/>
      <use xlink:href="#DejaVuSans-6c" transform="translate(680.224609 0)"/>
     </g>
    </g>
   </g>
   <g id="patch_103">
    <path d="M 53.328125 273.312 
L 53.328125 7.2 
" style="fill: none; stroke: #ffffff; stroke-width: 0.8; stroke-linejoin: miter; stroke-linecap: square"/>
   </g>
   <g id="patch_104">
    <path d="M 319.440125 273.312 
L 319.440125 7.2 
" style="fill: none; stroke: #ffffff; stroke-width: 0.8; stroke-linejoin: miter; stroke-linecap: square"/>
   </g>
   <g id="patch_105">
    <path d="M 53.328125 273.312 
L 319.440125 273.312 
" style="fill: none; stroke: #ffffff; stroke-width: 0.8; stroke-linejoin: miter; stroke-linecap: square"/>
   </g>
   <g id="patch_106">
    <path d="M 53.328125 7.2 
L 319.440125 7.2 
" style="fill: none; stroke: #ffffff; stroke-width: 0.8; stroke-linejoin: miter; stroke-linecap: square"/>
   </g>
   <g id="legend_1">
    <g id="patch_107">
     <path d="M 60.328125 44.55625 
L 147.91875 44.55625 
Q 149.91875 44.55625 149.91875 42.55625 
L 149.91875 14.2 
Q 149.91875 12.2 147.91875 12.2 
L 60.328125 12.2 
Q 58.328125 12.2 58.328125 14.2 
L 58.328125 42.55625 
Q 58.328125 44.55625 60.328125 44.55625 
z
" style="opacity: 0.8; stroke: #cccccc; stroke-linejoin: miter"/>
    </g>
    <g id="patch_108">
     <path d="M 62.328125 23.798437 
L 82.328125 23.798437 
L 82.328125 16.798437 
L 62.328125 16.798437 
z
" style="fill: #9370db; opacity: 0.5"/>
    </g>
    <g id="text_14">
     <!-- per shell -->
     <g style="fill: #ffffff" transform="translate(90.328125 23.798437) scale(0.1 -0.1)">
      <use xlink:href="#DejaVuSans-70"/>
      <use xlink:href="#DejaVuSans-65" transform="translate(63.476562 0)"/>
      <use xlink:href="#DejaVuSans-72" transform="translate(125 0)"/>
      <use xlink:href="#DejaVuSans-20" transform="translate(166.113281 0)"/>
      <use xlink:href="#DejaVuSans-73" transform="translate(197.900391 0)"/>
      <use xlink:href="#DejaVuSans-68" transform="translate(250 0)"/>
      <use xlink:href="#DejaVuSans-65" transform="translate(313.378906 0)"/>
      <use xlink:href="#DejaVuSans-6c" transform="translate(374.902344 0)"/>
      <use xlink:href="#DejaVuSans-6c" transform="translate(402.685547 0)"/>
     </g>
    </g>
    <g id="line2d_12">
     <path d="M 62.328125 34.976562 
L 72.328125 34.976562 
L 82.328125 34.976562 
" style="fill: none; stroke: #ffa500; stroke-width: 1.5; stroke-linecap: square"/>
    </g>
    <g id="text_15">
     <!-- cumulative -->
     <g style="fill: #ffffff" transform="translate(90.328125 38.476562) scale(0.1 -0.1)">
      <defs>
       <path id="DejaVuSans-63" d="M 3122 3366 
L 3122 2828 
Q 2878 2963 2633 3030 
Q 2388 3097 2138 3097 
Q 1578 3097 1268 2742 
Q 959 2388 959 1747 
Q 959 1106 1268 751 
Q 1578 397 2138 397 
Q 2388 397 2633 464 
Q 2878 531 3122 666 
L 3122 134 
Q 2881 22 2623 -34 
Q 2366 -91 2075 -91 
Q 1284 -91 818 406 
Q 353 903 353 1747 
Q 353 2603 823 3093 
Q 1294 3584 2113 3584 
Q 2378 3584 2631 3529 
Q 2884 3475 3122 3366 
z
" transform="scale(0.015625)"/>
       <path id="DejaVuSans-6d" d="M 3328 2828 
Q 3544 3216 3844 3400 
Q 4144 3584 4550 3584 
Q 5097 3584 5394 3201 
Q 5691 2819 5691 2113 
L 5691 0 
L 5113 0 
L 5113 2094 
Q 5113 2597 4934 2840 
Q 4756 3084 4391 3084 
Q 3944 3084 3684 2787 
Q 3425 2491 3425 1978 
L 3425 0 
L 2847 0 
L 2847 2094 
Q 2847 2600 2669 2842 
Q 2491 3084 2119 3084 
Q 1678 3084 1418 2786 
Q 1159 2488 1159 1978 
L 1159 0 
L 581 0 
L 581 3500 
L 1159 3500 
L 1159 2956 
Q 1356 3278 1631 3431 
Q 1906 3584 2284 3584 
Q 2666 3584 2933 3390 
Q 3200 3197 3328 2828 
z
" transform="scale(0.015625)"/>
       <path id="DejaVuSans-74" d="M 1172 4494 
L 1172 3500 
L 2356 3500 
L 2356 3053 
L 1172 3053 
L 1172 1153 
Q 1172 725 1289 603 
Q 1406 481 1766 481 
L 2356 481 
L 2356 0 
L 1766 0 
Q 1100 0 847 248 
Q 594 497 594 1153 
L 594 3053 
L 172 3053 
L 172 3500 
L 594 3500 
L 594 4494 
L 1172 4494 
z
" transform="scale(0.015625)"/>
       <path id="DejaVuSans-76" d="M 191 3500 
L 800 3500 
L 1894 563 
L 2988 3500 
L 3597 3500 
L 2284 0 
L 1503 0 
L 191 3500 
z
" transform="scale(0.015625)"/>
      </defs>
      <use xlink:href="#DejaVuSans-63"/>
      <use xlink:href="#DejaVuSans-75" transform="translate(54.980469 0)"/>
      <use xlink:href="#DejaVuSans-6d" transform="translate(118.359375 0)"/>
      <use xlink:href="#DejaVuSans-75" transform="translate(215.771484 0)"/>
      <use xlink:href="#DejaVuSans-6c" transform="translate(279.150391 0)"/>
      <use xlink:href="#DejaVuSans-61" transform="translate(306.933594 0)"/>
      <use xlink:href="#DejaVuSans-74" transform="translate(368.212891 0)"/>
      <use xlink:href="#DejaVuSans-69" transform="translate(407.421875 0)"/>
      <use xlink:href="#DejaVuSans-76" transform="translate(435.205078 0)"/>
      <use xlink:href="#DejaVuSans-65" transform="translate(494.384766 0)"/>
     </g>
    </g>
   </g>
  </g>
  <g id="axes_2">
   <g id="matplotlib.axis_3">
    <g id="ytick_6">
     <g id="line2d_13">
      <defs>
       <path id="m388afc6042" d="M 0 0 
L 3.5 0 
" style="stroke: #ffffff; stroke-width: 0.8"/>
      </defs>
      <g>
       <use xlink:href="#m388afc6042" x="319.440125" y="261.216" style="fill: #ffffff; stroke: #ffffff; stroke-width: 0.8"/>
      </g>
     </g>
     <g id="text_16">
      <!-- 0 -->
      <g style="fill: #ffffff" transform="translate(326.440125 265.015219) scale(0.1 -0.1)">
       <use xlink:href="#DejaVuSans-30"/>
      </g>
     </g>
    </g>
    <g id="ytick_7">
     <g id="line2d_14">
      <g>
       <use xlink:href="#m388afc6042" x="319.440125" y="226.783401" style="fill: #ffffff; stroke: #ffffff; stroke-width: 0.8"/>
      </g>
     </g>
     <g id="text_17">
      <!-- 50000 -->
      <g style="fill: #ffffff" transform="translate(326.440125 230.582619) scale(0.1 -0.1)">
       <defs>
        <path id="DejaVuSans-35" d="M 691 4666 
L 3169 4666 
L 3169 4134 
L 1269 4134 
L 1269 2991 
Q 1406 3038 1543 3061 
Q 1681 3084 1819 3084 
Q 2600 3084 3056 2656 
Q 3513 2228 3513 1497 
Q 3513 744 3044 326 
Q 2575 -91 1722 -91 
Q 1428 -91 1123 -41 
Q 819 9 494 109 
L 494 744 
Q 775 591 1075 516 
Q 1375 441 1709 441 
Q 2250 441 2565 725 
Q 2881 1009 2881 1497 
Q 2881 1984 2565 2268 
Q 2250 2553 1709 2553 
Q 1456 2553 1204 2497 
Q 953 2441 691 2322 
L 691 4666 
z
" transform="scale(0.015625)"/>
       </defs>
       <use xlink:href="#DejaVuSans-35"/>
       <use xlink:href="#DejaVuSans-30" transform="translate(63.623047 0)"/>
       <use xlink:href="#DejaVuSans-30" transform="translate(127.246094 0)"/>
       <use xlink:href="#DejaVuSans-30" transform="translate(190.869141 0)"/>
       <use xlink:href="#DejaVuSans-30" transform="translate(254.492188 0)"/>
      </g>
     </g>
    </g>
    <g id="ytick_8">
     <g id="line2d_15">
      <g>
       <use xlink:href="#m388afc6042" x="319.440125" y="192.350801" style="fill: #ffffff; stroke: #ffffff; stroke-width: 0.8"/>
      </g>
     </g>
     <g id="text_18">
      <!-- 100000 -->
      <g style="fill: #ffffff" transform="translate(326.440125 196.15002) scale(0.1 -0.1)">
       <use xlink:href="#DejaVuSans-31"/>
       <use xlink:href="#DejaVuSans-30" transform="translate(63.623047 0)"/>
       <use xlink:href="#DejaVuSans-30" transform="translate(127.246094 0)"/>
       <use xlink:href="#DejaVuSans-30" transform="translate(190.869141 0)"/>
       <use xlink:href="#DejaVuSans-30" transform="translate(254.492188 0)"/>
       <use xlink:href="#DejaVuSans-30" transform="translate(318.115234 0)"/>
      </g>
     </g>
    </g>
    <g id="ytick_9">
     <g id="line2d_16">
      <g>
       <use xlink:href="#m388afc6042" x="319.440125" y="157.918202" style="fill: #ffffff; stroke: #ffffff; stroke-width: 0.8"/>
      </g>
     </g>
     <g id="text_19">
      <!-- 150000 -->
      <g style="fill: #ffffff" transform="translate(326.440125 161.717421) scale(0.1 -0.1)">
       <use xlink:href="#DejaVuSans-31"/>
       <use xlink:href="#DejaVuSans-35" transform="translate(63.623047 0)"/>
       <use xlink:href="#DejaVuSans-30" transform="translate(127.246094 0)"/>
       <use xlink:href="#DejaVuSans-30" transform="translate(190.869141 0)"/>
       <use xlink:href="#DejaVuSans-30" transform="translate(254.492188 0)"/>
       <use xlink:href="#DejaVuSans-30" transform="translate(318.115234 0)"/>
      </g>
     </g>
    </g>
    <g id="ytick_10">
     <g id="line2d_17">
      <g>
       <use xlink:href="#m388afc6042" x="319.440125" y="123.485602" style="fill: #ffffff; stroke: #ffffff; stroke-width: 0.8"/>
      </g>
     </g>
     <g id="text_20">
      <!-- 200000 -->
      <g style="fill: #ffffff" transform="translate(326.440125 127.284821) scale(0.1 -0.1)">
       <use xlink:href="#DejaVuSans-32"/>
       <use xlink:href="#DejaVuSans-30" transform="translate(63.623047 0)"/>
       <use xlink:href="#DejaVuSans-30" transform="translate(127.246094 0)"/>
       <use xlink:href="#DejaVuSans-30" transform="translate(190.869141 0)"/>
       <use xlink:href="#DejaVuSans-30" transform="translate(254.492188 0)"/>
       <use xlink:href="#DejaVuSans-30" transform="translate(318.115234 0)"/>
      </g>
     </g>
    </g>
    <g id="ytick_11">
     <g id="line2d_18">
      <g>
       <use xlink:href="#m388afc6042" x="319.440125" y="89.053003" style="fill: #ffffff; stroke: #ffffff; stroke-width: 0.8"/>
      </g>
     </g>
     <g id="text_21">
      <!-- 250000 -->
      <g style="fill: #ffffff" transform="translate(326.440125 92.852222) scale(0.1 -0.1)">
       <use xlink:href="#DejaVuSans-32"/>
       <use xlink:href="#DejaVuSans-35" transform="translate(63.623047 0)"/>
       <use xlink:href="#DejaVuSans-30" transform="translate(127.246094 0)"/>
       <use xlink:href="#DejaVuSans-30" transform="translate(190.869141 0)"/>
       <use xlink:href="#DejaVuSans-30" transform="translate(254.492188 0)"/>
       <use xlink:href="#DejaVuSans-30" transform="translate(318.115234 0)"/>
      </g>
     </g>
    </g>
    <g id="ytick_12">
     <g id="line2d_19">
      <g>
       <use xlink:href="#m388afc6042" x="319.440125" y="54.620404" style="fill: #ffffff; stroke: #ffffff; stroke-width: 0.8"/>
      </g>
     </g>
     <g id="text_22">
      <!-- 300000 -->
      <g style="fill: #ffffff" transform="translate(326.440125 58.419622) scale(0.1 -0.1)">
       <use xlink:href="#DejaVuSans-33"/>
       <use xlink:href="#DejaVuSans-30" transform="translate(63.623047 0)"/>
       <use xlink:href="#DejaVuSans-30" transform="translate(127.246094 0)"/>
       <use xlink:href="#DejaVuSans-30" transform="translate(190.869141 0)"/>
       <use xlink:href="#DejaVuSans-30" transform="translate(254.492188 0)"/>
       <use xlink:href="#DejaVuSans-30" transform="translate(318.115234 0)"/>
      </g>
     </g>
    </g>
    <g id="ytick_13">
     <g id="line2d_20">
      <g>
       <use xlink:href="#m388afc6042" x="319.440125" y="20.187804" style="fill: #ffffff; stroke: #ffffff; stroke-width: 0.8"/>
      </g>
     </g>
     <g id="text_23">
      <!-- 350000 -->
      <g style="fill: #ffffff" transform="translate(326.440125 23.987023) scale(0.1 -0.1)">
       <use xlink:href="#DejaVuSans-33"/>
       <use xlink:href="#DejaVuSans-35" transform="translate(63.623047 0)"/>
       <use xlink:href="#DejaVuSans-30" transform="translate(127.246094 0)"/>
       <use xlink:href="#DejaVuSans-30" transform="translate(190.869141 0)"/>
       <use xlink:href="#DejaVuSans-30" transform="translate(254.492188 0)"/>
       <use xlink:href="#DejaVuSans-30" transform="translate(318.115234 0)"/>
      </g>
     </g>
    </g>
    <g id="text_24">
     <!-- cumulative pairs -->
     <g style="fill: #ffffff" transform="translate(376.213562 181.927875) rotate(-90) scale(0.1 -0.1)">
      <use xlink:href="#DejaVuSans-63"/>
      <use xlink:href="#DejaVuSans-75" transform="translate(54.980469 0)"/>
      <use xlink:href="#DejaVuSans-6d" transform="translate(118.359375 0)"/>
      <use xlink:href="#DejaVuSans-75" transform="translate(215.771484 0)"/>
      <use xlink:href="#DejaVuSans-6c" transform="translate(279.150391 0)"/>
      <use xlink:href="#DejaVuSans-61" transform="translate(306.933594 0)"/>
      <use xlink:href="#DejaVuSans-74" transform="translate(368.212891 0)"/>
      <use xlink:href="#DejaVuSans-69" transform="translate(407.421875 0)"/>
      <use xlink:href="#DejaVuSans-76" transform="translate(435.205078 0)"/>
      <use xlink:href="#DejaVuSans-65" transform="translate(494.384766 0)"/>
      <use xlink:href="#DejaVuSans-20" transform="translate(555.908203 0)"/>
      <use xlink:href="#DejaVuSans-70" transform="translate(587.695312 0)"/>
      <use xlink:href="#DejaVuSans-61" transform="translate(651.171875 0)"/>
      <use xlink:href="#DejaVuSans-69" transform="translate(712.451172 0)"/>
      <use xlink:href="#DejaVuSans-72" transform="translate(740.234375 0)"/>
      <use xlink:href="#DejaVuSans-73" transform="translate(781.347656 0)"/>
     </g>
    </g>
   </g>
   <g id="line2d_21">
    <path d="M 65.424125 261.216 
L 67.843325 261.09342 
L 70.262525 260.707086 
L 72.681725 260.10727 
L 75.100925 259.265049 
L 77.520125 258.226562 
L 79.939325 256.989054 
L 82.358525 255.564233 
L 84.777725 253.923864 
L 87.196925 252.125794 
L 89.616125 250.17622 
L 92.035325 248.171554 
L 94.454525 246.014007 
L 96.873725 243.744899 
L 99.292925 241.439981 
L 101.712125 239.075839 
L 104.131325 236.671755 
L 106.550525 234.187098 
L 108.969725 231.757534 
L 111.388925 229.245331 
L 113.808125 226.667707 
L 116.227325 224.123138 
L 118.646525 221.595785 
L 121.065725 219.188946 
L 123.484925 216.81654 
L 125.904125 214.375269 
L 128.323325 211.996665 
L 130.742525 209.631146 
L 133.161725 207.355151 
L 135.580925 205.050921 
L 138.000125 202.691599 
L 140.419325 200.442462 
L 142.838525 198.171288 
L 145.257725 195.911821 
L 147.676925 193.711578 
L 150.096125 191.487232 
L 152.515325 189.183002 
L 154.934525 186.845717 
L 157.353725 184.5711 
L 159.772925 182.264804 
L 162.192125 179.907548 
L 164.611325 177.577839 
L 167.030525 175.230224 
L 169.449725 172.874346 
L 171.868925 170.457177 
L 174.288125 168.040009 
L 176.707325 165.534004 
L 179.126525 163.054857 
L 181.545725 160.587417 
L 183.964925 158.06213 
L 186.384125 155.573342 
L 188.803325 153.114854 
L 191.222525 150.578549 
L 193.641725 148.047064 
L 196.060925 145.465308 
L 198.480125 142.869779 
L 200.899325 140.28389 
L 203.318525 137.640155 
L 205.737725 135.017769 
L 208.156925 132.421551 
L 210.576125 129.762665 
L 212.995325 127.043179 
L 215.414525 124.330578 
L 217.833725 121.686155 
L 220.252925 118.964602 
L 222.672125 116.322933 
L 225.091325 113.557995 
L 227.510525 110.856414 
L 229.929725 108.094231 
L 232.348925 105.321718 
L 234.768125 102.567798 
L 237.187325 99.803549 
L 239.606525 97.111609 
L 242.025725 94.332209 
L 244.444925 91.594129 
L 246.864125 88.754128 
L 249.283325 86.049103 
L 251.702525 83.234582 
L 254.121725 80.41593 
L 256.540925 77.599343 
L 258.960125 74.782068 
L 261.379325 71.907635 
L 263.798525 68.971222 
L 266.217725 66.087837 
L 268.636925 63.220978 
L 271.056125 60.228785 
L 273.475325 57.326117 
L 275.894525 54.426892 
L 278.313725 51.53662 
L 280.732925 48.585746 
L 283.152125 45.637627 
L 285.571325 42.6475 
L 287.990525 39.690429 
L 290.409725 36.822882 
L 292.828925 33.821736 
L 295.248125 30.886702 
L 297.667325 27.999872 
L 300.086525 25.13508 
L 302.505725 22.233101 
L 304.924925 19.296 
" clip-path="url(#p13a391a2b7)" style="fill: none; stroke: #ffa500; stroke-width: 1.5; stroke-linecap: square"/>
   </g>
   <g id="patch_109">
    <path d="M 53.328125 273.312 
L 53.328125 7.2 
" style="fill: none; stroke: #ffffff; stroke-width: 0.8; stroke-linejoin: miter; stroke-linecap: square"/>
   </g>
   <g id="patch_110">
    <path d="M 319.440125 273.312 
L 319.440125 7.2 
" style="fill: none; stroke: #ffffff; stroke-width: 0.8; stroke-linejoin: miter; stroke-linecap: square"/>
   </g>
   <g id="patch_111">
    <path d="M 53.328125 273.312 
L 319.440125 273.312 
" style="fill: none; stroke: #ffffff; stroke-width: 0.8; stroke-linejoin: miter; stroke-linecap: square"/>
   </g>
   <g id="patch_112">
    <path d="M 53.328125 7.2 
L 319.440125 7.2 
" style="fill: none; stroke: #ffffff; stroke-width: 0.8; stroke-linejoin: miter; stroke-linecap: square"/>
   </g>
  </g>
 </g>
 <defs>
  <clipPath id="p13a391a2b7">
   <rect x="53.328125" y="7.2" width="266.112" height="266.112"/>
  </clipPath>
 </defs>
</svg>
